# xmcd
#
# Track frame offsets:
#	150
#	11250
#	20730
#	35285
#	48660
#	58790
#	78840
#	89640
#	106177
#	118915
#	132637
#	148937
#	170175
#
# Disc length: 2451 seconds
#
# Revision: 1
# Processed by: cddbd v1.4PL0 Copyright (c) Steve Scherf et al.
# Submitted via: EasyCDDAExtractor 6.2.0.3
#
DISCID=bb09910d
DTITLE=Reid Paley - Lucky's Tune
DYEAR=1998
DGENRE=Blues
TTITLE0=Lazarus in Brooklyn
TTITLE1=Take It Away
TTITLE2=If I Knew Then What I Know Now
TTITLE3=My Angel
TTITLE4=Venus of Avenue A
TTITLE5=Time For You
TTITLE6=My Boyish Heart
TTITLE7=Sabatini's Lament
TTITLE8=Guardian of Yr Heart
TTITLE9=Surprise
TTITLE10=The Long Haul
TTITLE11=Another Personal Tragedy
TTITLE12=The Best Of All
EXTD=
EXTT0=
EXTT1=
EXTT2=
EXTT3=
EXTT4=
EXTT5=
EXTT6=
EXTT7=
EXTT8=
EXTT9=
EXTT10=
EXTT11=
EXTT12=
PLAYORDER=
